<?xml version="1.0" encoding="UTF-8"?>
<svg xmlns="http://www.w3.org/2000/svg" xmlns:xlink="http://www.w3.org/1999/xlink" width="375pt" height="374.999991pt" viewBox="0 0 375 374.999991" version="1.2">
<defs>
<clipPath id="clip1">
  <path d="M 29 33 L 375 33 L 375 362.324219 L 29 362.324219 Z M 29 33 "/>
</clipPath>
<clipPath id="clip2">
  <path d="M 21 12.273438 L 308 12.273438 L 308 352 L 21 352 Z M 21 12.273438 "/>
</clipPath>
</defs>
<g id="surface1">
<rect x="0" y="0" width="375" height="374.999991" style="fill:rgb(100%,100%,100%);fill-opacity:1;stroke:none;"/>
<rect x="0" y="0" width="375" height="374.999991" style="fill:rgb(100%,100%,100%);fill-opacity:1;stroke:none;"/>
<rect x="0" y="0" width="375" height="374.999991" style="fill:rgb(100%,100%,100%);fill-opacity:1;stroke:none;"/>
<path style=" stroke:none;fill-rule:nonzero;fill:rgb(90.19928%,63.919067%,45.878601%);fill-opacity:1;" d="M 50.878906 175.910156 C 59.429688 176.789062 68.453125 178.003906 76.757812 179.296875 C 76.011719 184.222656 75.574219 189.207031 75.480469 194.175781 C 63.796875 194.539062 48.277344 195.191406 38.585938 196.257812 C 32.652344 196.878906 26.917969 197.972656 21.242188 198.203125 C 15.570312 198.414062 9.941406 197.792969 4.265625 194.386719 C 0.859375 192.367188 -0.0859375 187.746094 0.582031 183.476562 C 1.253906 179.191406 3.976562 175.40625 7.308594 174.664062 C 21.945312 171.546875 36.367188 174.539062 50.878906 175.910156 Z M 352.25 104 C 349.632812 99.089844 344.398438 96.125 339.882812 99.058594 C 328.378906 106.460938 317.289062 114.484375 305.832031 121.929688 C 303.535156 123.464844 296.109375 128.402344 288.246094 133.632812 C 289.035156 134.695312 289.8125 135.773438 290.574219 136.882812 C 292.640625 139.894531 294.453125 142.992188 296.082031 146.167969 C 301.632812 143.722656 306.988281 141.304688 310.882812 139.511719 C 324.226562 133.417969 337.539062 125.105469 350.210938 117.75 C 354.835938 115.136719 354.957031 108.863281 352.25 104 Z M 352.25 104 "/>
<path style=" stroke:none;fill-rule:nonzero;fill:rgb(93.328857%,67.83905%,36.079407%);fill-opacity:1;" d="M 116.46875 276.097656 C 120.832031 279.183594 125.429688 281.964844 130.191406 284.394531 C 128.441406 289.046875 126.722656 293.710938 125.046875 298.390625 C 119.996094 312.417969 115.234375 326.582031 109.179688 340.335938 C 107.339844 344.558594 101.863281 345.484375 97.070312 343.707031 C 92.292969 341.871094 88.398438 337.75 89.78125 333.175781 C 94.222656 318.316406 101.96875 304.210938 108.753906 290.324219 C 111.097656 285.65625 113.742188 280.839844 116.46875 276.097656 Z M 350.636719 274.03125 C 337.371094 266.933594 323.570312 261.238281 309.941406 255.113281 C 305.742188 253.242188 301.574219 251.328125 297.417969 249.367188 C 295.242188 253.972656 292.613281 258.363281 289.417969 262.484375 C 292.976562 265.25 296.566406 267.9375 300.097656 270.386719 C 312.890625 279.0625 325.71875 288.726562 340.15625 294.730469 C 344.644531 296.613281 349.800781 292.601562 352.324219 287.40625 C 354.925781 282.207031 354.714844 276.191406 350.636719 274.03125 Z M 117.378906 34.429688 C 115.023438 29.703125 108.921875 29.066406 104.175781 31.464844 C 101.800781 32.605469 99.746094 34.351562 98.652344 36.390625 C 97.570312 38.488281 97.464844 40.902344 98.773438 43.273438 C 105.421875 55.21875 112.695312 66.78125 119.386719 78.679688 C 121.03125 81.523438 127.011719 91.839844 132.640625 101.550781 C 132.640625 101.566406 132.65625 101.582031 132.65625 101.582031 C 136.867188 99.441406 141.21875 97.554688 145.664062 95.914062 C 142.695312 88.253906 139.453125 80.050781 137.234375 74.652344 C 131.726562 61.097656 124.074219 47.5 117.378906 34.429688 Z M 117.378906 34.429688 "/>
<g clip-path="url(#clip1)" clip-rule="nonzero">
<path style=" stroke:none;fill-rule:nonzero;fill:rgb(80.778503%,56.079102%,52.549744%);fill-opacity:1;" d="M 195.929688 324.121094 C 196.949219 335.925781 200.050781 347.128906 194.101562 358.34375 C 192.292969 361.65625 188.230469 362.75 184.425781 362.171875 C 180.625 361.65625 177.140625 359.085938 176.363281 355.789062 C 173.046875 341.308594 175.117188 326.777344 175.753906 312.222656 C 176.027344 306.839844 176.410156 301.265625 176.867188 295.777344 C 182.675781 296.050781 188.503906 296.019531 194.285156 295.808594 C 194.679688 305.761719 195.214844 316.671875 195.929688 324.121094 Z M 271.859375 37.148438 C 264.832031 50.429688 259.125 64.230469 253.101562 77.859375 C 250.058594 84.789062 246.941406 91.675781 243.683594 98.511719 C 248.140625 100.472656 252.476562 102.691406 256.660156 105.199219 C 260.875 99.304688 265.089844 93.132812 268.710938 87.191406 C 276.636719 73.925781 285.507812 60.671875 291.136719 46.128906 C 294.816406 36.859375 276.121094 28.472656 271.859375 37.148438 Z M 43.058594 86.203125 C 38.832031 84.03125 33.839844 87.023438 31.222656 91.554688 C 28.621094 96.097656 28.242188 101.703125 32.121094 104.257812 C 44.582031 112.628906 57.742188 119.789062 70.6875 127.25 C 77.550781 131.171875 84.351562 135.183594 91.074219 139.316406 C 93.570312 135.167969 96.382812 131.230469 99.457031 127.523438 C 93.691406 122.433594 87.574219 117.234375 81.644531 112.75 C 69.199219 103.464844 56.875 93.300781 43.058594 86.203125 Z M 370.246094 184.144531 C 358.699219 178.355469 347.714844 182.304688 335.910156 183.933594 C 328.257812 185.085938 316.910156 186.195312 306.730469 187.0625 C 307.109375 192.640625 307.171875 198.246094 306.988281 203.855469 C 312.90625 204.25 318.960938 204.554688 324.789062 204.722656 C 339.378906 205.054688 353.953125 206.910156 368.40625 203.035156 C 371.769531 202.136719 373.976562 198.367188 374.539062 194.296875 C 374.964844 190.207031 373.746094 185.90625 370.246094 184.144531 Z M 370.246094 184.144531 "/>
</g>
<g clip-path="url(#clip2)" clip-rule="nonzero">
<path style=" stroke:none;fill-rule:nonzero;fill:rgb(93.728638%,76.469421%,57.249451%);fill-opacity:1;" d="M 306.714844 187.0625 C 305.726562 172.824219 302.578125 158.875 296.066406 146.167969 C 294.4375 142.992188 292.628906 139.894531 290.558594 136.882812 C 289.796875 135.773438 289.023438 134.695312 288.230469 133.632812 C 279.484375 121.886719 268.710938 112.417969 256.648438 105.199219 C 252.460938 102.691406 248.125 100.472656 243.667969 98.511719 C 230.296875 92.632812 215.796875 89.199219 200.996094 88.164062 C 201.816406 79.820312 202.484375 70.765625 202.882812 62.222656 C 203.445312 47.664062 205.542969 33.121094 201.832031 18.625 C 200.964844 15.234375 197.207031 12.910156 193.113281 12.394531 C 191.074219 12.121094 188.960938 12.257812 187.136719 12.894531 C 185.324219 13.609375 183.789062 14.796875 182.890625 16.496094 C 176.957031 27.941406 180.746094 38.957031 182.207031 50.796875 C 183.542969 60.550781 184.714844 76.265625 185.476562 87.964844 C 183.574219 88.058594 181.6875 88.164062 179.785156 88.316406 C 168.179688 89.304688 156.617188 91.855469 145.648438 95.898438 C 141.203125 97.539062 136.851562 99.425781 132.640625 101.566406 C 124.789062 105.546875 117.378906 110.367188 110.671875 116.066406 C 106.578125 119.53125 102.851562 123.375 99.441406 127.492188 C 96.371094 131.199219 93.570312 135.152344 91.058594 139.285156 C 83.742188 151.394531 78.917969 165.132812 76.757812 179.265625 C 76.011719 184.191406 75.574219 189.175781 75.480469 194.144531 C 75.238281 207.199219 77.320312 220.222656 81.871094 232.273438 C 75.007812 235.492188 67.949219 238.867188 63.15625 241.253906 C 49.9375 247.710938 36.976562 256.402344 24.558594 264.230469 C 20.058594 266.964844 20.210938 273.589844 23.328125 278.589844 C 26.460938 283.605469 31.800781 286.828125 36.246094 283.484375 C 47.289062 275.414062 57.832031 266.785156 68.878906 258.683594 C 71.265625 256.890625 79.421875 250.796875 87.652344 244.640625 C 94.710938 257.179688 104.753906 267.785156 116.46875 276.070312 C 120.832031 279.152344 125.429688 281.933594 130.191406 284.367188 C 131.46875 285.019531 132.761719 285.65625 134.070312 286.265625 C 147.410156 292.464844 162.0625 295.0625 176.878906 295.761719 C 182.691406 296.035156 188.519531 296.007812 194.300781 295.792969 C 200.234375 295.566406 206.121094 295.15625 211.886719 294.636719 C 220.515625 293.863281 229.65625 292.707031 238.695312 290.761719 C 239.988281 295.671875 241.21875 300.308594 242.195312 303.800781 C 246.089844 317.917969 252.035156 332.386719 257.058594 346.183594 C 258.835938 351.199219 264.589844 352.460938 269.625 350.789062 C 274.644531 349.164062 278.617188 344.742188 276.546875 339.679688 C 271.417969 327.007812 265.59375 314.636719 260.40625 302.007812 C 259.492188 299.867188 256.875 293.695312 253.878906 286.597656 C 264.863281 282.832031 275.070312 277.40625 283.195312 269.472656 C 285.476562 267.238281 287.53125 264.898438 289.417969 262.46875 C 292.597656 258.347656 295.230469 253.957031 297.417969 249.351562 C 303.625 236.238281 306.136719 221.46875 306.882812 206.621094 C 306.929688 205.695312 306.957031 204.765625 306.988281 203.839844 C 307.171875 198.246094 307.109375 192.640625 306.714844 187.0625 Z M 114.09375 169.753906 C 113.136719 165.832031 113.820312 161.914062 113 158.023438 C 112.570312 156 115.675781 155.148438 116.101562 157.171875 C 117.652344 164.542969 115.601562 180.527344 126.007812 182.078125 C 133.535156 183.21875 138.132812 178.855469 138.800781 171.5625 C 139.210938 167.078125 139.105469 162.503906 139.105469 158.007812 C 139.105469 155.941406 142.316406 155.941406 142.316406 158.007812 C 142.300781 169.554688 143.625 185.496094 127.90625 185.421875 C 123.023438 185.390625 119.160156 183.582031 117 179.085938 C 115.628906 176.242188 114.839844 172.808594 114.09375 169.753906 Z M 216.117188 210.085938 C 201.953125 221.832031 182.023438 220.402344 166.6875 211.636719 C 164.890625 210.601562 166.503906 207.835938 168.316406 208.871094 C 182.265625 216.832031 200.859375 218.59375 213.851562 207.820312 C 215.433594 206.5 217.714844 208.761719 216.117188 210.085938 Z M 253.300781 185.4375 C 248.414062 185.40625 244.550781 183.597656 242.390625 179.101562 C 241.023438 176.242188 240.230469 172.808594 239.484375 169.753906 C 238.527344 165.832031 239.210938 161.914062 238.390625 158.023438 C 237.964844 156 241.066406 155.148438 241.492188 157.171875 C 243.046875 164.542969 240.992188 180.527344 251.398438 182.078125 C 258.929688 183.21875 263.523438 178.855469 264.191406 171.5625 C 264.589844 167.308594 264.496094 162.992188 264.496094 158.722656 C 264.496094 158.476562 264.496094 158.25 264.496094 158.007812 C 264.496094 155.941406 267.707031 155.941406 267.707031 158.007812 C 267.707031 158.082031 267.707031 158.175781 267.707031 158.25 C 267.707031 169.785156 268.910156 185.511719 253.300781 185.4375 Z M 253.300781 185.4375 "/>
</g>
<path style=" stroke:none;fill-rule:nonzero;fill:rgb(19.219971%,18.429565%,22.749329%);fill-opacity:1;" d="M 142.316406 158.023438 C 142.300781 169.570312 143.625 185.511719 127.90625 185.4375 C 123.023438 185.40625 119.160156 183.597656 117 179.101562 C 115.628906 176.242188 114.839844 172.808594 114.09375 169.753906 C 113.136719 165.832031 113.820312 161.914062 113 158.023438 C 112.570312 156 115.675781 155.148438 116.101562 157.171875 C 117.652344 164.542969 115.601562 180.527344 126.007812 182.078125 C 133.535156 183.21875 138.132812 178.855469 138.800781 171.5625 C 139.210938 167.078125 139.105469 162.503906 139.105469 158.007812 C 139.105469 155.957031 142.316406 155.957031 142.316406 158.023438 Z M 267.707031 158.265625 C 267.707031 158.1875 267.707031 158.097656 267.707031 158.023438 C 267.707031 155.957031 264.496094 155.957031 264.496094 158.023438 C 264.496094 158.265625 264.496094 158.492188 264.496094 158.738281 C 264.496094 163.007812 264.589844 167.324219 264.191406 171.578125 C 263.523438 178.871094 258.929688 183.21875 251.398438 182.09375 C 240.992188 180.527344 243.046875 164.554688 241.492188 157.1875 C 241.066406 155.164062 237.964844 156.015625 238.390625 158.039062 C 239.210938 161.925781 238.527344 165.847656 239.484375 169.769531 C 240.230469 172.808594 241.023438 176.257812 242.390625 179.113281 C 244.550781 183.613281 248.414062 185.421875 253.300781 185.453125 C 268.910156 185.511719 267.707031 169.785156 267.707031 158.265625 Z M 213.851562 207.804688 C 200.84375 218.59375 182.265625 216.832031 168.316406 208.855469 C 166.519531 207.820312 164.890625 210.601562 166.6875 211.621094 C 182.023438 220.386719 201.953125 221.816406 216.117188 210.070312 C 217.714844 208.761719 215.433594 206.5 213.851562 207.804688 Z M 213.851562 207.804688 "/>
</g>
</svg>
