<?xml version="1.0" encoding="UTF-8"?>
<svg xmlns="http://www.w3.org/2000/svg" xmlns:xlink="http://www.w3.org/1999/xlink" width="375pt" height="374.999991pt" viewBox="0 0 375 374.999991" version="1.2">
<defs>
<clipPath id="clip1">
  <path d="M 37.5 115 L 321 115 L 321 197 L 37.5 197 Z M 37.5 115 "/>
</clipPath>
<clipPath id="clip2">
  <path d="M 60 64 L 337.5 64 L 337.5 327.816406 L 60 327.816406 Z M 60 64 "/>
</clipPath>
<clipPath id="clip3">
  <path d="M 54 47.316406 L 284 47.316406 L 284 320 L 54 320 Z M 54 47.316406 "/>
</clipPath>
</defs>
<g id="surface1">
<rect x="0" y="0" width="375" height="374.999991" style="fill:rgb(100%,100%,100%);fill-opacity:1;stroke:none;"/>
<rect x="0" y="0" width="375" height="374.999991" style="fill:rgb(100%,100%,100%);fill-opacity:1;stroke:none;"/>
<rect x="0" y="0" width="375" height="374.999991" style="fill:rgb(100%,100%,100%);fill-opacity:1;stroke:none;"/>
<g clip-path="url(#clip1)" clip-rule="nonzero">
<path style=" stroke:none;fill-rule:nonzero;fill:rgb(90.19928%,63.919067%,45.878601%);fill-opacity:1;" d="M 78.203125 178.507812 C 85.042969 179.214844 92.261719 180.1875 98.90625 181.222656 C 98.3125 185.171875 97.957031 189.167969 97.886719 193.152344 C 88.539062 193.445312 76.121094 193.96875 68.371094 194.820312 C 63.625 195.320312 59.035156 196.195312 54.496094 196.378906 C 49.957031 196.550781 45.453125 196.050781 40.914062 193.320312 C 38.1875 191.703125 37.429688 187.996094 37.96875 184.574219 C 38.503906 181.140625 40.679688 178.105469 43.347656 177.507812 C 55.054688 175.011719 66.59375 177.410156 78.203125 178.507812 Z M 319.300781 120.855469 C 317.207031 116.921875 313.019531 114.546875 309.40625 116.898438 C 300.203125 122.828125 291.332031 129.261719 282.167969 135.230469 C 280.328125 136.460938 274.390625 140.421875 268.097656 144.613281 C 268.730469 145.464844 269.351562 146.332031 269.957031 147.21875 C 271.613281 149.632812 273.0625 152.117188 274.363281 154.664062 C 278.808594 152.703125 283.089844 150.765625 286.207031 149.328125 C 296.882812 144.441406 307.53125 137.777344 317.667969 131.882812 C 321.367188 129.785156 321.464844 124.753906 319.300781 120.855469 Z M 319.300781 120.855469 "/>
</g>
<path style=" stroke:none;fill-rule:nonzero;fill:rgb(93.328857%,67.83905%,36.079407%);fill-opacity:1;" d="M 130.671875 258.832031 C 134.167969 261.304688 137.84375 263.535156 141.652344 265.484375 C 140.253906 269.210938 138.875 272.953125 137.539062 276.703125 C 133.496094 287.949219 129.6875 299.304688 124.84375 310.328125 C 123.371094 313.714844 118.988281 314.460938 115.15625 313.035156 C 111.332031 311.558594 108.21875 308.257812 109.324219 304.589844 C 112.878906 292.675781 119.074219 281.371094 124.503906 270.234375 C 126.378906 266.496094 128.496094 262.632812 130.671875 258.832031 Z M 318.011719 257.175781 C 307.398438 251.484375 296.359375 246.917969 285.453125 242.007812 C 282.09375 240.507812 278.757812 238.972656 275.4375 237.402344 C 273.695312 241.09375 271.589844 244.613281 269.035156 247.914062 C 271.882812 250.132812 274.753906 252.289062 277.578125 254.25 C 287.8125 261.207031 298.074219 268.957031 309.625 273.769531 C 313.214844 275.277344 317.339844 272.0625 319.359375 267.894531 C 321.441406 263.730469 321.273438 258.90625 318.011719 257.175781 Z M 131.402344 65.082031 C 129.515625 61.292969 124.636719 60.78125 120.839844 62.707031 C 118.941406 63.621094 117.296875 65.019531 116.421875 66.652344 C 115.558594 68.335938 115.472656 70.269531 116.519531 72.171875 C 121.835938 81.746094 127.65625 91.019531 133.011719 100.558594 C 134.324219 102.835938 139.109375 111.109375 143.609375 118.894531 C 143.609375 118.90625 143.625 118.917969 143.625 118.917969 C 146.996094 117.203125 150.476562 115.691406 154.03125 114.375 C 151.65625 108.234375 149.0625 101.65625 147.285156 97.332031 C 142.882812 86.464844 136.757812 75.558594 131.402344 65.082031 Z M 131.402344 65.082031 "/>
<g clip-path="url(#clip2)" clip-rule="nonzero">
<path style=" stroke:none;fill-rule:nonzero;fill:rgb(80.778503%,56.079102%,52.549744%);fill-opacity:1;" d="M 194.242188 297.332031 C 195.058594 306.796875 197.542969 315.777344 192.78125 324.765625 C 191.332031 327.421875 188.085938 328.300781 185.042969 327.835938 C 182 327.421875 179.210938 325.363281 178.589844 322.71875 C 175.9375 311.109375 177.59375 299.460938 178.105469 287.789062 C 178.324219 283.476562 178.628906 279.007812 178.992188 274.609375 C 183.640625 274.828125 188.304688 274.804688 192.929688 274.632812 C 193.246094 282.613281 193.671875 291.359375 194.242188 297.332031 Z M 254.988281 67.261719 C 249.367188 77.910156 244.800781 88.972656 239.980469 99.902344 C 237.546875 105.457031 235.050781 110.976562 232.449219 116.457031 C 236.011719 118.03125 239.480469 119.808594 242.828125 121.820312 C 246.199219 117.089844 249.570312 112.144531 252.46875 107.382812 C 258.808594 96.746094 265.90625 86.121094 270.410156 74.460938 C 273.355469 67.03125 258.394531 60.304688 254.988281 67.261719 Z M 71.949219 106.589844 C 68.566406 104.847656 64.574219 107.246094 62.480469 110.878906 C 60.398438 114.519531 60.09375 119.015625 63.199219 121.0625 C 73.164062 127.777344 83.695312 133.515625 94.050781 139.496094 C 99.539062 142.640625 104.980469 145.855469 110.359375 149.171875 C 112.355469 145.84375 114.609375 142.6875 117.066406 139.714844 C 112.453125 135.632812 107.5625 131.46875 102.8125 127.875 C 92.859375 120.429688 83 112.277344 71.949219 106.589844 Z M 333.699219 185.109375 C 324.460938 180.46875 315.671875 183.636719 306.226562 184.941406 C 300.105469 185.867188 291.027344 186.753906 282.882812 187.449219 C 283.1875 191.921875 283.238281 196.417969 283.089844 200.914062 C 287.824219 201.230469 292.667969 201.472656 297.332031 201.605469 C 309.003906 201.875 320.664062 203.359375 332.226562 200.253906 C 334.914062 199.535156 336.679688 196.515625 337.128906 193.25 C 337.472656 189.972656 336.496094 186.523438 333.699219 185.109375 Z M 333.699219 185.109375 "/>
</g>
<g clip-path="url(#clip3)" clip-rule="nonzero">
<path style=" stroke:none;fill-rule:nonzero;fill:rgb(93.728638%,76.469421%,57.249451%);fill-opacity:1;" d="M 282.871094 187.449219 C 282.082031 176.035156 279.5625 164.851562 274.351562 154.664062 C 273.050781 152.117188 271.601562 149.632812 269.945312 147.21875 C 269.339844 146.332031 268.71875 145.464844 268.085938 144.613281 C 261.085938 135.195312 252.46875 127.605469 242.816406 121.820312 C 239.46875 119.808594 236 118.03125 232.433594 116.457031 C 221.738281 111.742188 210.136719 108.988281 198.296875 108.160156 C 198.953125 101.472656 199.488281 94.210938 199.804688 87.363281 C 200.253906 75.691406 201.933594 64.035156 198.964844 52.410156 C 198.269531 49.695312 195.265625 47.828125 191.992188 47.414062 C 190.359375 47.195312 188.667969 47.304688 187.207031 47.816406 C 185.757812 48.390625 184.53125 49.339844 183.8125 50.707031 C 179.066406 59.878906 182.097656 68.710938 183.265625 78.203125 C 184.335938 86.023438 185.273438 98.621094 185.882812 108.003906 C 184.359375 108.074219 182.851562 108.160156 181.328125 108.28125 C 172.042969 109.074219 162.792969 111.121094 154.015625 114.363281 C 150.464844 115.679688 146.984375 117.1875 143.613281 118.90625 C 137.332031 122.097656 131.402344 125.960938 126.035156 130.53125 C 122.761719 133.308594 119.78125 136.390625 117.054688 139.691406 C 114.59375 142.664062 112.355469 145.832031 110.347656 149.144531 C 104.492188 158.855469 100.636719 169.871094 98.90625 181.199219 C 98.3125 185.148438 97.957031 189.144531 97.886719 193.128906 C 97.691406 203.59375 99.359375 214.035156 102.996094 223.695312 C 97.507812 226.277344 91.859375 228.980469 88.027344 230.894531 C 77.449219 236.074219 67.078125 243.042969 57.148438 249.316406 C 53.546875 251.507812 53.667969 256.820312 56.164062 260.828125 C 58.667969 264.851562 62.941406 267.433594 66.496094 264.753906 C 75.332031 258.28125 83.765625 251.363281 92.601562 244.871094 C 94.511719 243.429688 101.039062 238.546875 107.621094 233.613281 C 113.269531 243.664062 121.300781 252.167969 130.671875 258.808594 C 134.167969 261.28125 137.84375 263.507812 141.652344 265.457031 C 142.675781 265.984375 143.707031 266.496094 144.753906 266.980469 C 155.429688 271.953125 167.148438 274.035156 179.003906 274.597656 C 183.652344 274.816406 188.316406 274.792969 192.941406 274.621094 C 197.6875 274.4375 202.398438 274.109375 207.011719 273.695312 C 213.910156 273.074219 221.226562 272.148438 228.457031 270.589844 C 229.488281 274.523438 230.476562 278.238281 231.253906 281.042969 C 234.371094 292.359375 239.128906 303.957031 243.144531 315.019531 C 244.570312 319.039062 249.171875 320.050781 253.199219 318.710938 C 257.214844 317.40625 260.390625 313.863281 258.738281 309.804688 C 254.636719 299.644531 249.972656 289.726562 245.824219 279.605469 C 245.09375 277.886719 243 272.9375 240.601562 267.25 C 249.390625 264.226562 257.554688 259.878906 264.054688 253.519531 C 265.882812 251.726562 267.523438 249.851562 269.035156 247.902344 C 271.578125 244.601562 273.683594 241.082031 275.4375 237.390625 C 280.402344 226.875 282.410156 215.03125 283.007812 203.128906 C 283.042969 202.386719 283.066406 201.644531 283.089844 200.898438 C 283.238281 196.417969 283.1875 191.921875 282.871094 187.449219 Z M 128.773438 173.574219 C 128.007812 170.429688 128.554688 167.285156 127.898438 164.167969 C 127.558594 162.546875 130.039062 161.863281 130.382812 163.484375 C 131.621094 169.394531 129.980469 182.210938 138.304688 183.453125 C 144.328125 184.367188 148.003906 180.871094 148.539062 175.023438 C 148.871094 171.429688 148.785156 167.761719 148.785156 164.15625 C 148.785156 162.5 151.351562 162.5 151.351562 164.15625 C 151.339844 173.414062 152.398438 186.195312 139.824219 186.132812 C 135.917969 186.109375 132.828125 184.660156 131.097656 181.054688 C 130.003906 178.773438 129.371094 176.023438 128.773438 173.574219 Z M 210.394531 205.90625 C 199.0625 215.324219 183.117188 214.179688 170.851562 207.148438 C 169.414062 206.320312 170.703125 204.105469 172.152344 204.933594 C 183.3125 211.316406 198.1875 212.730469 208.582031 204.09375 C 209.847656 203.03125 211.671875 204.847656 210.394531 205.90625 Z M 240.140625 186.144531 C 236.234375 186.121094 233.140625 184.671875 231.414062 181.066406 C 230.316406 178.773438 229.683594 176.023438 229.089844 173.574219 C 228.320312 170.429688 228.871094 167.285156 228.210938 164.167969 C 227.871094 162.546875 230.355469 161.863281 230.695312 163.484375 C 231.9375 169.394531 230.292969 182.210938 238.617188 183.453125 C 244.644531 184.367188 248.320312 180.871094 248.855469 175.023438 C 249.171875 171.613281 249.097656 168.152344 249.097656 164.726562 C 249.097656 164.53125 249.097656 164.351562 249.097656 164.15625 C 249.097656 162.5 251.664062 162.5 251.664062 164.15625 C 251.664062 164.214844 251.664062 164.289062 251.664062 164.351562 C 251.664062 173.597656 252.628906 186.207031 240.140625 186.144531 Z M 240.140625 186.144531 "/>
</g>
<path style=" stroke:none;fill-rule:nonzero;fill:rgb(19.219971%,18.429565%,22.749329%);fill-opacity:1;" d="M 151.351562 164.167969 C 151.339844 173.425781 152.398438 186.207031 139.824219 186.144531 C 135.917969 186.121094 132.828125 184.671875 131.097656 181.066406 C 130.003906 178.773438 129.371094 176.023438 128.773438 173.574219 C 128.007812 170.429688 128.554688 167.285156 127.898438 164.167969 C 127.558594 162.546875 130.039062 161.863281 130.382812 163.484375 C 131.621094 169.394531 129.980469 182.210938 138.304688 183.453125 C 144.328125 184.367188 148.003906 180.871094 148.539062 175.023438 C 148.871094 171.429688 148.785156 167.761719 148.785156 164.15625 C 148.785156 162.511719 151.351562 162.511719 151.351562 164.167969 Z M 251.664062 164.363281 C 251.664062 164.300781 251.664062 164.226562 251.664062 164.167969 C 251.664062 162.511719 249.097656 162.511719 249.097656 164.167969 C 249.097656 164.363281 249.097656 164.546875 249.097656 164.738281 C 249.097656 168.164062 249.171875 171.625 248.855469 175.035156 C 248.320312 180.882812 244.644531 184.367188 238.617188 183.464844 C 230.292969 182.210938 231.9375 169.40625 230.695312 163.496094 C 230.355469 161.878906 227.871094 162.558594 228.210938 164.179688 C 228.871094 167.296875 228.320312 170.441406 229.089844 173.585938 C 229.683594 176.023438 230.316406 178.789062 231.414062 181.078125 C 233.140625 184.683594 236.234375 186.132812 240.140625 186.160156 C 252.628906 186.207031 251.664062 173.597656 251.664062 164.363281 Z M 208.582031 204.078125 C 198.175781 212.730469 183.3125 211.316406 172.152344 204.921875 C 170.714844 204.09375 169.414062 206.320312 170.851562 207.136719 C 183.117188 214.167969 199.0625 215.3125 210.394531 205.894531 C 211.671875 204.847656 209.847656 203.03125 208.582031 204.078125 Z M 208.582031 204.078125 "/>
</g>
</svg>
